<svg width="16" height="16" viewBox="0 0 16 16" fill="none" xmlns="http://www.w3.org/2000/svg">
<path fill-rule="evenodd" clip-rule="evenodd" d="M15.5001 1.125C15.5001 0.95924 15.4342 0.800269 15.317 0.683058C15.1998 0.565848 15.0408 0.5 14.8751 0.5H7.37506C7.2093 0.5 7.05033 0.565848 6.93312 0.683058C6.81591 0.800269 6.75006 0.95924 6.75006 1.125C6.75006 1.29076 6.81591 1.44973 6.93312 1.56694C7.05033 1.68415 7.2093 1.75 7.37506 1.75H13.3663L0.682557 14.4325C0.624447 14.4906 0.578352 14.5596 0.546903 14.6355C0.515454 14.7114 0.499268 14.7928 0.499268 14.875C0.499268 14.9572 0.515454 15.0386 0.546903 15.1145C0.578352 15.1904 0.624447 15.2594 0.682557 15.3175C0.740667 15.3756 0.809654 15.4217 0.885578 15.4532C0.961502 15.4846 1.04288 15.5008 1.12506 15.5008C1.20724 15.5008 1.28861 15.4846 1.36454 15.4532C1.44046 15.4217 1.50945 15.3756 1.56756 15.3175L14.2501 2.63375V8.625C14.2501 8.79076 14.3159 8.94973 14.4331 9.06694C14.5503 9.18415 14.7093 9.25 14.8751 9.25C15.0408 9.25 15.1998 9.18415 15.317 9.06694C15.4342 8.94973 15.5001 8.79076 15.5001 8.625V1.125Z" fill="#fff"/>
</svg>
