<svg width="56" height="56" viewBox="0 0 56 56" fill="none" xmlns="http://www.w3.org/2000/svg">
<circle cx="28" cy="28" r="28" transform="rotate(180 28 28)" fill="#FFC93E"/>
<path fill-rule="evenodd" clip-rule="evenodd" d="M37.8 28.0004C37.8 28.186 37.7262 28.3641 37.595 28.4954C37.4637 28.6266 37.2857 28.7004 37.1 28.7004L20.5898 28.7004L24.9956 33.1048C25.127 33.2362 25.2009 33.4145 25.2009 33.6004C25.2009 33.7863 25.127 33.9645 24.9956 34.096C24.8642 34.2274 24.6859 34.3013 24.5 34.3013C24.3141 34.3013 24.1358 34.2274 24.0044 34.096L18.4044 28.496C18.3392 28.431 18.2875 28.3537 18.2522 28.2687C18.2169 28.1836 18.1987 28.0925 18.1987 28.0004C18.1987 27.9083 18.2169 27.8171 18.2522 27.7321C18.2875 27.6471 18.3392 27.5698 18.4044 27.5048L24.0044 21.9048C24.1358 21.7733 24.3141 21.6995 24.5 21.6995C24.6859 21.6995 24.8642 21.7733 24.9956 21.9048C25.127 22.0362 25.2009 22.2145 25.2009 22.4004C25.2009 22.5863 25.127 22.7645 24.9956 22.896L20.5898 27.3004L37.1 27.3004C37.2857 27.3004 37.4637 27.3741 37.595 27.5054C37.7262 27.6367 37.8 27.8147 37.8 28.0004Z" fill="#0A142F"/>
</svg>
