<svg width="22" height="22" viewBox="0 0 22 22" fill="none" xmlns="http://www.w3.org/2000/svg">
<path d="M11 0.5C5.20297 0.5 0.5 5.20297 0.5 11C0.5 16.797 5.20297 21.5 11 21.5C16.797 21.5 21.5 16.8022 21.5 11C21.5 5.19781 16.797 0.5 11 0.5ZM17.6666 5.33984C18.8815 6.76805 19.6046 8.54925 19.7291 10.4202C17.8367 10.3217 15.5727 10.3217 13.7572 10.4914C13.5275 9.91156 13.2922 9.34297 13.0353 8.79594C15.1287 7.88844 16.7422 6.69594 17.6666 5.33984ZM11 2.24984C13.0395 2.24634 15.0156 2.95866 16.5837 4.26266C15.6322 5.46547 14.1392 6.51266 12.2797 7.30297C11.2625 5.42188 10.092 3.80328 8.84375 2.52875C9.54819 2.3469 10.2725 2.25322 11 2.24984ZM7.04047 3.20703C8.30375 4.46469 9.49063 6.06641 10.5298 7.94141C8.55547 8.54469 6.29141 8.89062 3.875 8.89062C3.41563 8.89062 2.9675 8.87422 2.52453 8.84656C2.83266 7.63935 3.3949 6.5118 4.17367 5.53927C4.95244 4.56673 5.92981 3.77161 7.04047 3.20703ZM2.26625 10.5842C2.76406 10.6062 3.26703 10.617 3.77562 10.6119C6.53187 10.5791 9.09688 10.1469 11.3009 9.44C11.5087 9.87219 11.7056 10.3152 11.8916 10.7689C11.6252 10.8272 11.3637 10.9056 11.1092 11.0033C8.09609 12.2689 5.72281 14.3084 4.4375 16.775C3.02813 15.1814 2.25007 13.1274 2.24984 11C2.24984 10.8594 2.25547 10.7211 2.26625 10.5842ZM11 19.7502C9.056 19.7525 7.16724 19.1036 5.63516 17.907C6.8 15.5994 8.87797 13.6883 11.4978 12.5037C11.7439 12.3889 12.072 12.2961 12.4494 12.2141C12.7619 13.0778 13.0408 13.9747 13.2861 14.9047C13.6525 16.3083 13.9223 17.7354 14.0938 19.1759C13.1061 19.5543 12.0576 19.7489 11 19.7502ZM15.7306 18.3556C15.5595 16.9001 15.2871 15.4584 14.9155 14.0408C14.728 13.3297 14.5166 12.6406 14.2869 11.968C16.0039 11.8273 18.0603 11.8475 19.6953 11.968C19.5512 13.2606 19.1206 14.5047 18.4347 15.6097C17.7488 16.7148 16.825 17.6529 15.7306 18.3556Z" fill="#FFC93E"/>
</svg>
