<svg width="22" height="22" viewBox="0 0 22 22" fill="none" xmlns="http://www.w3.org/2000/svg">
<path d="M11 0.5C5.20156 0.5 0.5 5.32344 0.5 11.2672C0.5 16.025 3.50937 20.0562 7.68125 21.4812C7.73977 21.494 7.79949 21.5002 7.85938 21.5C8.24844 21.5 8.39844 21.2141 8.39844 20.9656C8.39844 20.7078 8.38906 20.0328 8.38437 19.1328C8.03705 19.2142 7.68173 19.2567 7.325 19.2594C5.30469 19.2594 4.84531 17.6891 4.84531 17.6891C4.36719 16.4469 3.67813 16.1141 3.67813 16.1141C2.76406 15.4719 3.67344 15.4531 3.74375 15.4531H3.74844C4.80313 15.5469 5.35625 16.5687 5.35625 16.5687C5.88125 17.4875 6.58437 17.7453 7.2125 17.7453C7.62783 17.737 8.03673 17.6412 8.4125 17.4641C8.50625 16.7703 8.77812 16.2969 9.07812 16.025C6.74844 15.7531 4.29688 14.8297 4.29688 10.7047C4.29688 9.52812 4.70469 8.56719 5.375 7.81719C5.26719 7.54531 4.90625 6.44844 5.47812 4.96719C5.55483 4.94883 5.63367 4.94095 5.7125 4.94375C6.09219 4.94375 6.95 5.08906 8.36563 6.07344C10.0857 5.59218 11.9049 5.59218 13.625 6.07344C15.0406 5.08906 15.8984 4.94375 16.2781 4.94375C16.357 4.94095 16.4358 4.94883 16.5125 4.96719C17.0844 6.44844 16.7234 7.54531 16.6156 7.81719C17.2859 8.57187 17.6937 9.53281 17.6937 10.7047C17.6937 14.8391 15.2375 15.7484 12.8984 16.0156C13.2734 16.3484 13.6109 17.0047 13.6109 18.0078C13.6109 19.4469 13.5969 20.6094 13.5969 20.9609C13.5969 21.2141 13.7422 21.5 14.1312 21.5C14.1942 21.5003 14.2571 21.494 14.3187 21.4812C18.4953 20.0562 21.5 16.0203 21.5 11.2672C21.5 5.32344 16.7984 0.5 11 0.5Z" fill="#E0E5F3"/>
</svg>
