<svg width="56" height="56" viewBox="0 0 56 56" fill="none" xmlns="http://www.w3.org/2000/svg">
<path d="M40.4679 8.8873L47.1126 15.5289L40.4679 8.8873ZM44.7408 3.03626L26.7736 21.0035C25.8452 21.9306 25.2121 23.1117 24.954 24.398L23.2943 32.7056L31.6019 31.0428C32.8882 30.7856 34.0678 30.155 34.9964 29.2263L52.9637 11.2591C53.5036 10.7192 53.9319 10.0782 54.2241 9.37275C54.5163 8.66731 54.6667 7.91123 54.6667 7.14767C54.6667 6.38411 54.5163 5.62803 54.2241 4.92259C53.9319 4.21715 53.5036 3.57617 52.9637 3.03626C52.4237 2.49634 51.7828 2.06805 51.0773 1.77585C50.3719 1.48365 49.6158 1.33325 48.8522 1.33325C48.0887 1.33325 47.3326 1.48365 46.6272 1.77585C45.9217 2.06805 45.2808 2.49634 44.7408 3.03626V3.03626Z" stroke="#FFC93E" stroke-width="2.5" stroke-linecap="round" stroke-linejoin="round"/>
<path d="M48.3926 38.98V48.3919C48.3926 50.056 47.7316 51.652 46.5549 52.8287C45.3782 54.0054 43.7822 54.6665 42.1181 54.6665H7.60791C5.94379 54.6665 4.34783 54.0054 3.17112 52.8287C1.9944 51.652 1.33334 50.056 1.33334 48.3919V13.8818C1.33334 12.2176 1.9944 10.6217 3.17112 9.44496C4.34783 8.26825 5.94379 7.60718 7.60791 7.60718H17.0198" stroke="#FFC93E" stroke-width="2.5" stroke-linecap="round" stroke-linejoin="round"/>
</svg>
